<svg width="24" height="24" viewBox="0 0 24 24" fill="none" xmlns="http://www.w3.org/2000/svg">
<g clip-path="url(#clip0_4021_31)">
<path d="M23.0653 4.48312C23.15 4.39839 23.2117 4.29344 23.2445 4.1782C23.2773 4.06297 23.2802 3.94127 23.2528 3.82463C23.2252 3.70801 23.1682 3.60038 23.0873 3.51194C23.0065 3.4235 22.9044 3.35718 22.7907 3.31927L18.3158 1.82789C18.0624 1.74206 17.7836 1.80933 17.5962 1.99748C17.5038 2.08984 17.4391 2.20609 17.4091 2.3332C17.3792 2.46031 17.3852 2.59325 17.4266 2.71711L18.918 7.19198C18.9559 7.30567 19.0222 7.40779 19.1106 7.48866C19.1991 7.56953 19.3067 7.62647 19.4233 7.65408C19.54 7.68142 19.6616 7.67856 19.7769 7.64576C19.8921 7.61296 19.9971 7.5513 20.0818 7.46662L21.0135 6.53494C22 8.17116 22.5938 10.0656 22.5938 12C22.5938 17.8159 17.8159 22.5938 12 22.5938C11.6114 22.5938 11.2969 22.9082 11.2969 23.2969C11.2969 23.6855 11.6114 24 12 24C18.5911 24 24 18.5911 24 12C24 9.69014 23.2731 7.43902 22.0345 5.51395L23.0653 4.48312ZM0.721172 19.3272C0.636461 19.4119 0.574783 19.5169 0.541979 19.6321C0.509175 19.7473 0.506332 19.869 0.533719 19.9857C0.561333 20.1023 0.618274 20.2099 0.699143 20.2984C0.780012 20.3868 0.882129 20.4531 0.995812 20.491L5.47069 21.9824C5.71856 22.0666 6 22.003 6.19031 21.8128C6.28264 21.7205 6.34741 21.6042 6.37737 21.4771C6.40733 21.35 6.40128 21.2171 6.35991 21.0932L4.86783 16.619C4.83003 16.5053 4.76374 16.4031 4.67529 16.3222C4.58683 16.2413 4.47914 16.1844 4.36247 16.1569C4.24582 16.1296 4.12414 16.1325 4.00892 16.1653C3.8937 16.1981 3.78874 16.2597 3.70397 16.3444L2.85314 17.1952C1.95206 15.6134 1.40625 13.8425 1.40625 12C1.40625 6.18412 6.18412 1.40625 12 1.40625C12.3886 1.40625 12.7031 1.09177 12.7031 0.703125C12.7031 0.314484 12.3886 0 12 0C5.40891 0 0 5.40891 0 12C0 14.2177 0.678141 16.3473 1.82639 18.222L0.721172 19.3272Z" fill="#DCF0E1"/>
<path d="M13.4016 2.8125C12.188 2.8125 11.1164 3.43102 10.4844 4.36913C10.9734 4.27186 11.4781 4.21875 11.9953 4.21875C13.8468 4.21875 15.5473 4.87416 16.8803 5.96316C16.6948 4.19808 15.215 2.8125 13.4016 2.8125Z" fill="#DCF0E1"/>
<path d="M16.2188 18.3281C17.3837 18.3281 18.3281 17.3837 18.3281 16.2188C18.3281 15.0538 17.3837 14.1094 16.2188 14.1094C15.0538 14.1094 14.1094 15.0538 14.1094 16.2188C14.1094 17.3837 15.0538 18.3281 16.2188 18.3281Z" fill="#DCF0E1"/>
<path d="M7.07812 16.9219C7.85478 16.9219 8.48438 16.2923 8.48438 15.5156C8.48438 14.739 7.85478 14.1094 7.07812 14.1094C6.30147 14.1094 5.67188 14.739 5.67188 15.5156C5.67188 16.2923 6.30147 16.9219 7.07812 16.9219Z" fill="#DCF0E1"/>
<path d="M7.07812 8.4375C7.85478 8.4375 8.48438 7.8079 8.48438 7.03125C8.48438 6.2546 7.85478 5.625 7.07812 5.625C6.30147 5.625 5.67188 6.2546 5.67188 7.03125C5.67188 7.8079 6.30147 8.4375 7.07812 8.4375Z" fill="#DCF0E1"/>
<path d="M12 5.625C11.19 5.625 10.4219 5.79127 9.71002 6.06858C9.82078 6.37017 9.89062 6.69164 9.89062 7.03125C9.89062 8.58239 8.62927 9.84375 7.07812 9.84375C6.73852 9.84375 6.41705 9.77391 6.11545 9.66314C5.83814 10.375 5.67188 11.19 5.67188 12C5.67188 12.3554 5.7202 12.6981 5.7765 13.0374C6.16753 12.8311 6.60595 12.7031 7.07812 12.7031C8.62927 12.7031 9.89062 13.9645 9.89062 15.5156C9.89062 16.3155 9.55134 17.0342 9.01359 17.5468C9.90694 18.0291 10.9136 18.3281 12 18.3281C12.4493 18.3281 12.8865 18.2781 13.3094 18.189C12.9271 17.6265 12.7031 16.9485 12.7031 16.2188C12.7031 14.2803 14.2803 12.7031 16.2188 12.7031C16.9485 12.7031 17.6265 12.9271 18.189 13.3094C18.2781 12.8865 18.3281 12.4493 18.3281 12C18.3281 8.50505 15.495 5.625 12 5.625Z" fill="#DCF0E1"/>
</g>
<defs>
<clipPath id="clip0_4021_31">
<rect width="24" height="24" fill="white"/>
</clipPath>
</defs>
</svg>
