<svg width="24" height="24" viewBox="0 0 24 24" fill="none" xmlns="http://www.w3.org/2000/svg">
<path d="M2.83594 0L3.34359 6.27422C3.65906 6.19359 4.13906 6.08719 4.73297 6.00703L4.36078 1.40625H19.6397L18.9989 9.32859C19.792 9.21094 20.3372 9.05437 20.4342 9.02531L21.1645 0H2.83594ZM4.55766 21.277L4.77797 24H19.2225L19.4428 21.277H4.55766Z" fill="#DCF0E1"/>
<path d="M19.5912 10.6566C19.3747 10.6946 19.1352 10.7316 18.8769 10.764C18.4953 10.8118 18.0725 10.8483 17.623 10.8629C17.4889 10.8671 17.3567 10.8694 17.225 10.8694C14.9441 10.8694 12.9889 10.2324 11.5522 9.01646C9.35 7.15271 6.53094 7.17333 4.84109 7.41239C4.58 7.44896 4.34609 7.49114 4.14547 7.53192C3.81406 7.59989 3.57406 7.66505 3.45312 7.70021L4.43797 19.8708H19.5509L20.3084 10.5099C20.113 10.5558 19.8706 10.6069 19.5912 10.6566Z" fill="#DCF0E1"/>
</svg>
