<svg width="40" height="40" viewBox="0 0 40 40" fill="none" xmlns="http://www.w3.org/2000/svg">
<path fill-rule="evenodd" clip-rule="evenodd" d="M28.5156 8.98562C31.9836 9.79031 33.3102 11.8182 34.9734 14.6094H28.5156V8.98562ZM8.24828 14.8438C8.92734 14.8438 9.42016 15.1715 9.42016 15.9375C9.42016 16.5836 8.89742 17.1076 8.25164 17.1094H1.17188C0.524609 17.1094 0 17.6343 0 18.2812C0 18.9285 0.524609 19.4531 1.17188 19.4531H11.7188C12.3721 19.4531 12.8952 19.9773 12.8952 20.625C12.8952 21.2723 12.3706 21.7969 11.7234 21.7969H1.17188C0.524609 21.7969 0 22.3215 0 22.9688C0 23.616 0.524609 24.1406 1.17188 24.1406H3.75V27.6562C3.75 28.3035 4.27461 28.8281 4.92188 28.8281H7.2775C7.69742 30.8966 9.52516 32.4219 11.6797 32.4219C13.8342 32.4219 15.662 30.8966 16.0819 28.8281H27.9806C28.4005 30.8966 30.2283 32.4219 32.3828 32.4219C34.5373 32.4219 36.3651 30.8966 36.785 28.8281H38.8281C39.4754 28.8281 40 28.3035 40 27.6562V20.625C40 17.1866 36.3733 16.9583 36.3699 16.9531H27.3438C26.6965 16.9531 26.1719 16.4285 26.1719 15.7812V8.75H4.92188C4.27461 8.75 3.75 9.27461 3.75 9.92188V12.5H2.34375C1.69648 12.5 1.17188 13.0246 1.17188 13.6719C1.17188 14.3191 1.69648 14.8438 2.34375 14.8438H8.24828ZM33.902 26.4105C34.7409 27.2495 34.7409 28.6102 33.902 29.4491C32.5525 30.7987 30.2344 29.8386 30.2344 27.9297C30.2344 26.0211 32.5525 25.061 33.902 26.4105ZM13.1988 26.4105C14.0378 27.2495 14.0378 28.6102 13.1988 29.4491C11.8494 30.7987 9.53125 29.8386 9.53125 27.9297C9.53125 26.0211 11.8494 25.061 13.1988 26.4105Z" fill="#DCF0E1"/>
</svg>
