<svg width="24" height="24" viewBox="0 0 24 24" fill="none" xmlns="http://www.w3.org/2000/svg">
<g clip-path="url(#clip0_4021_162)">
<path d="M20.4666 12.6828C20.3311 12.2396 20.168 11.8054 19.9782 11.3826L19.4217 11.7128C17.2564 12.9974 14.69 13.6765 12 13.6765C9.30998 13.6765 6.74362 12.9975 4.57833 11.7128L4.02178 11.3827C3.83197 11.8054 3.66887 12.2396 3.53344 12.6828L10.6785 17.5022C11.0704 17.7666 11.5273 17.9062 12 17.9062C12.4727 17.9062 12.9297 17.7666 13.3215 17.5022L20.4666 12.6828ZM23.2969 5.24999H21.4787L21.6847 5.04402C21.9593 4.76947 21.9593 4.32425 21.6847 4.04966C21.4102 3.77511 20.9649 3.77511 20.6903 4.04966L19.2841 5.45591C19.0095 5.73046 19.0095 6.17568 19.2841 6.45027L20.6903 7.85652C20.8276 7.99382 21.0075 8.06249 21.1875 8.06249C21.3675 8.06249 21.5474 7.99382 21.6847 7.85652C21.9592 7.58197 21.9592 7.13675 21.6847 6.86216L21.4787 6.65624H23.2969C23.6852 6.65624 24 6.34143 24 5.95311C24 5.5648 23.6852 5.24999 23.2969 5.24999ZM4.71591 5.45596L3.30966 4.04971C3.03511 3.77516 2.58989 3.77516 2.3153 4.04971C2.0407 4.32425 2.0407 4.76947 2.3153 5.04407L2.52127 5.24999H0.703125C0.314812 5.24999 0 5.5648 0 5.95311C0 6.34143 0.314812 6.65624 0.703125 6.65624H2.52127L2.3153 6.86221C2.0407 7.13675 2.0407 7.58197 2.3153 7.85657C2.45259 7.99382 2.63255 8.06249 2.8125 8.06249C2.99245 8.06249 3.17241 7.99382 3.30966 7.85652L4.71591 6.45027C4.99055 6.17572 4.99055 5.7305 4.71591 5.45596Z" fill="#DCF0E1"/>
<path d="M17.4335 4.98952L18.7782 0.923906C18.8131 0.818263 18.8225 0.70583 18.8056 0.595853C18.7886 0.485876 18.7458 0.381497 18.6806 0.291299C18.6154 0.201102 18.5298 0.127662 18.4307 0.0770208C18.3316 0.0263792 18.2219 -1.79727e-05 18.1106 9.18079e-09H5.89012C5.77885 2.56647e-06 5.66917 0.0264131 5.5701 0.0770606C5.47102 0.127708 5.38538 0.201146 5.32021 0.291338C5.25505 0.38153 5.21222 0.4859 5.19524 0.595868C5.17827 0.705837 5.18764 0.818263 5.22258 0.923906L6.56728 4.98956C6.70688 5.41031 6.75279 5.85649 6.7018 6.29685C6.65082 6.73721 6.50416 7.1611 6.27211 7.53881L4.67911 10.1373L5.29622 10.5034C9.24352 12.8453 14.7573 12.8453 18.7046 10.5034L19.3217 10.1373L17.7287 7.53877C17.4966 7.16106 17.35 6.73717 17.299 6.29681C17.248 5.85645 17.2939 5.41027 17.4335 4.98952ZM12.0004 10.875C11.6121 10.875 11.2972 10.5602 11.2972 10.1719C11.2972 9.78356 11.6121 9.46875 12.0004 9.46875C12.3887 9.46875 12.7035 9.78356 12.7035 10.1719C12.7035 10.5602 12.3887 10.875 12.0004 10.875ZM11.2972 19.2467C10.7945 19.1515 10.3165 18.9546 9.8925 18.6681L3.19364 14.1496C3.15299 14.3996 3.12111 14.651 3.09806 14.9033C2.94755 16.5796 3.19045 18.2948 3.80039 19.8633L5.23481 23.5517C5.28616 23.6838 5.3762 23.7972 5.49314 23.8772C5.61007 23.9572 5.74845 24 5.89012 24H11.2972V19.2467ZM20.8071 14.1496L14.1083 18.6681C13.6843 18.9546 13.2063 19.1515 12.7035 19.2467V24H18.1106C18.2523 24 18.3907 23.9572 18.5076 23.8772C18.6245 23.7972 18.7146 23.6838 18.7659 23.5517L20.2004 19.8633C20.8103 18.2948 21.0532 16.5795 20.9027 14.9033C20.8796 14.651 20.8478 14.3996 20.8071 14.1496Z" fill="#DCF0E1"/>
</g>
<defs>
<clipPath id="clip0_4021_162">
<rect width="24" height="24" fill="white"/>
</clipPath>
</defs>
</svg>
