<svg width="40" height="40" viewBox="0 0 40 40" fill="none" xmlns="http://www.w3.org/2000/svg">
<path d="M35.0699 6.74987C32.4266 6.2914 28.8541 5.08903 26.8463 1.96461C26.7447 1.80654 26.605 1.67652 26.4401 1.58647C26.2752 1.49642 26.0903 1.44923 25.9024 1.44922H14.0958C13.9078 1.44923 13.7228 1.49646 13.5578 1.58659C13.3928 1.67673 13.2531 1.80686 13.1515 1.96506C11.1462 5.08895 7.57398 6.29125 4.93032 6.74979C4.66987 6.79496 4.43373 6.93062 4.26354 7.13287C4.09334 7.33512 4.00001 7.59096 4 7.8553V18.4808C4 21.1577 4.6142 23.7691 5.82555 26.2426C6.92178 28.4812 8.50767 30.6096 10.5395 32.5692C12.722 34.6716 16.3757 37.3161 19.6187 38.4846C19.8646 38.5732 20.1336 38.5732 20.3795 38.4846C23.6249 37.3152 27.279 34.671 29.4612 32.5687C31.4926 30.6096 33.0784 28.4812 34.1748 26.2426C35.386 23.7691 36.0002 21.1576 36.0002 18.4808V7.85537C36.0002 7.59104 35.9069 7.3352 35.7367 7.13295C35.5665 6.9307 35.3304 6.79503 35.0699 6.74987ZM31.9163 18.481C31.9163 22.4936 30.1363 26.244 26.6259 29.628C24.8935 31.299 22.546 32.9709 20.4997 33.9911C20.3441 34.0686 20.1727 34.109 19.9989 34.109C19.8251 34.1089 19.6537 34.0685 19.4982 33.991C17.4523 32.9701 15.1058 31.2982 13.3741 29.6278C9.86391 26.2441 8.08399 22.4937 8.08399 18.481V11.017C8.08399 10.7833 8.15698 10.5554 8.29277 10.3652C8.42857 10.1749 8.62038 10.0318 8.84143 9.9559C11.4599 9.05617 13.6191 7.69088 15.259 5.89794C15.3641 5.78302 15.492 5.69125 15.6345 5.62845C15.7771 5.56566 15.9311 5.53322 16.0869 5.53321H23.9113C24.226 5.53321 24.5264 5.66538 24.7388 5.89749C26.3811 7.69096 28.5411 9.0564 31.1588 9.95582C31.3799 10.0318 31.5717 10.1749 31.7075 10.3651C31.8433 10.5553 31.9163 10.7832 31.9163 11.017V18.4809V18.481ZM16.5701 7.77728C14.8918 9.49713 12.797 10.8477 10.328 11.8019V18.481C10.328 21.8608 11.8769 25.0676 14.9317 28.0124C16.347 29.3776 18.2846 30.7912 19.9993 31.7218C21.7142 30.7918 23.6525 29.3782 25.0682 28.0126C28.1233 25.0676 29.6722 21.8607 29.6722 18.4809V11.8018C27.204 10.8478 25.1082 9.49713 23.4283 7.7772L16.5701 7.77728ZM25.27 16.19C25.699 16.6371 25.6845 17.3473 25.2374 17.7764L19.2895 23.4847C19.0807 23.6855 18.8022 23.7975 18.5126 23.7972C18.3652 23.7974 18.2192 23.7684 18.083 23.712C17.9469 23.6556 17.8232 23.5729 17.7191 23.4685L14.7463 20.4956C14.3081 20.0574 14.3081 19.347 14.7463 18.9088C15.1845 18.4707 15.895 18.4707 16.3331 18.9088L18.5287 21.1044L23.6835 16.1573C24.1307 15.7282 24.841 15.7428 25.27 16.1899V16.19Z" fill="#DCF0E1"/>
</svg>
