<svg width="40" height="40" viewBox="0 0 40 40" fill="none" xmlns="http://www.w3.org/2000/svg">
<path d="M30.9247 14.3752H37.4997V11.2502C37.4997 10.3002 37.1372 9.42522 36.5372 8.76272L30.9247 14.3752ZM12.7997 32.5002H33.7497C35.8122 32.5002 37.4997 30.8127 37.4997 28.7502V16.8752H28.4247L12.7997 32.5002ZM35.366 2.86647L30.7322 7.50022H6.24974C4.18724 7.50022 2.49974 9.18772 2.49974 11.2502V14.3752H23.8572L21.3572 16.8752H2.49974V28.7502C2.49974 29.7002 2.86224 30.5752 3.46224 31.2377C4.03974 31.9002 4.86224 32.3327 5.78348 32.4502L2.86599 35.3665C2.7466 35.4818 2.65137 35.6197 2.58586 35.7722C2.52035 35.9247 2.48586 36.0887 2.48442 36.2547C2.48298 36.4207 2.51461 36.5853 2.57746 36.7389C2.64031 36.8925 2.73313 37.0321 2.85049 37.1495C2.96786 37.2668 3.10742 37.3596 3.26104 37.4225C3.41466 37.4854 3.57926 37.517 3.74524 37.5155C3.91121 37.5141 4.07524 37.4796 4.22774 37.4141C4.38025 37.3486 4.51818 37.2534 4.63349 37.134L37.1335 4.63397C37.2529 4.51867 37.3481 4.38073 37.4136 4.22823C37.4791 4.07572 37.5136 3.9117 37.515 3.74573C37.5165 3.57975 37.4849 3.41515 37.422 3.26153C37.3592 3.10791 37.2663 2.96835 37.149 2.85098C37.0316 2.73361 36.892 2.6408 36.7384 2.57795C36.5848 2.5151 36.4202 2.48347 36.2542 2.48491C36.0883 2.48635 35.9242 2.52084 35.7717 2.58635C35.6192 2.65186 35.4813 2.74709 35.366 2.86647ZM10.1072 28.1252H8.12473C7.71223 28.1252 7.33723 27.9127 7.09973 27.6002C6.96769 27.4125 6.88972 27.1921 6.87432 26.963C6.85893 26.734 6.90671 26.5052 7.01244 26.3014C7.11818 26.0977 7.27782 25.9269 7.47395 25.8077C7.67009 25.6884 7.8952 25.6253 8.12473 25.6252H11.8747C12.0847 25.6252 12.2747 25.6915 12.4497 25.784L10.1072 28.1252ZM11.8747 24.3752H8.12473C7.43723 24.3752 6.87473 23.8127 6.87473 23.1252C6.87473 22.4377 7.43723 21.8752 8.12473 21.8752H11.8747C12.1497 21.8752 12.3997 21.9627 12.5997 22.1002C12.9122 22.3377 13.1247 22.7127 13.1247 23.1252C13.1247 23.8127 12.5622 24.3752 11.8747 24.3752Z" fill="#DCF0E1"/>
</svg>
