<svg width="24" height="24" viewBox="0 0 24 24" fill="none" xmlns="http://www.w3.org/2000/svg">
<path d="M21.7546 7.9778C21.7548 6.84499 21.419 5.73758 20.7897 4.79563C20.1604 3.85369 19.2659 3.11952 18.2194 2.68599C17.1728 2.25246 16.0212 2.13905 14.9101 2.36009C13.7991 2.58113 12.7786 3.12671 11.9776 3.9278L7.95463 7.9498L3.93463 11.9698C3.66635 12.2374 3.42518 12.5308 3.21463 12.8458C3.19363 12.8768 3.18263 12.9128 3.16163 12.9458C2.97844 13.2271 2.82017 13.5239 2.68863 13.8328C2.67463 13.8658 2.67063 13.9028 2.65763 13.9328C2.53174 14.2455 2.43402 14.5688 2.36563 14.8988V14.9578C2.2996 15.3073 2.26613 15.6621 2.26562 16.0178V16.0258C2.26603 16.3815 2.29951 16.7363 2.36563 17.0858C2.36468 17.1057 2.3667 17.1255 2.37163 17.1448C2.42268 17.3584 2.48646 17.5688 2.56263 17.7748C2.83216 18.638 3.3043 19.4242 3.93963 20.0678C4.19093 20.3172 4.46477 20.5428 4.75762 20.7418C4.77662 20.7538 4.79163 20.7718 4.81063 20.7848C4.95263 20.8798 5.11063 20.9448 5.26163 21.0268C5.43389 21.1316 5.61183 21.2267 5.79463 21.3118C5.96463 21.3828 6.14762 21.4188 6.32463 21.4728C6.50048 21.5357 6.67937 21.5898 6.86063 21.6348C7.23242 21.7086 7.61057 21.7458 7.98962 21.7458C8.12962 21.7458 8.26463 21.7148 8.40363 21.7048C8.64221 21.6967 8.88003 21.6733 9.11563 21.6348C9.14763 21.6288 9.17763 21.6138 9.21563 21.6068C10.2696 21.3796 11.237 20.8569 12.0046 20.0998C12.0146 20.0898 12.0276 20.0828 12.0376 20.0728L16.0576 16.0528L20.0796 12.0298C20.6131 11.4988 21.0358 10.8673 21.3233 10.1717C21.6108 9.47616 21.7575 8.73044 21.7546 7.9778ZM8.12463 13.3298L7.36462 14.0898C7.04013 14.4144 6.79192 14.8071 6.63799 15.2395C6.48406 15.6719 6.42825 16.1332 6.47462 16.5898C6.4943 16.7884 6.43506 16.9868 6.3097 17.1421C6.18433 17.2974 6.00292 17.3971 5.80463 17.4198H5.72462C5.53886 17.4186 5.3602 17.3483 5.22341 17.2226C5.08663 17.0969 5.00151 16.9248 4.98463 16.7398C4.9141 16.0621 4.99603 15.3772 5.22443 14.7353C5.45283 14.0934 5.8219 13.5106 6.30463 13.0298L7.06462 12.2698C7.20576 12.1303 7.39619 12.0521 7.59463 12.0521C7.79306 12.0521 7.98349 12.1303 8.12463 12.2698C8.19576 12.3385 8.25232 12.4209 8.29096 12.5119C8.32959 12.603 8.3495 12.7009 8.3495 12.7998C8.3495 12.8987 8.32959 12.9966 8.29096 13.0877C8.25232 13.1787 8.19576 13.2611 8.12463 13.3298ZM14.9936 14.9888L9.01562 9.0108L13.0376 4.9878C13.8332 4.2079 14.9044 3.77352 16.0184 3.77905C17.1325 3.78458 18.1993 4.22959 18.9871 5.01735C19.7748 5.80511 20.2198 6.87195 20.2254 7.986C20.2309 9.10005 19.7965 10.1713 19.0166 10.9668L14.9936 14.9888Z" fill="#FEFEFE"/>
</svg>
