<svg width="24" height="24" viewBox="0 0 24 24" fill="none" xmlns="http://www.w3.org/2000/svg">
<path d="M11.1696 10.2743V4.31934L5.41406 6.39309C5.46625 7.69415 5.59976 8.99068 5.81381 10.2751L11.1696 10.2743ZM11.1696 11.9251H6.15806C6.46781 13.1551 6.90056 14.3513 7.50806 15.3263C8.45745 16.8505 9.70242 18.1692 11.1696 19.2046V11.9251ZM12.8196 11.9251V19.2046C14.2867 18.1692 15.5317 16.8505 16.4811 15.3263C17.0886 14.3513 17.5213 13.1543 17.8311 11.9251H12.8196ZM12.8196 10.2743H18.1746C18.4288 8.79159 18.5346 7.38459 18.5751 6.39234L12.8196 4.32009V10.2743Z" fill="#DCF0E1"/>
<path d="M22.4519 4.20013C22.4413 4.05553 22.3891 3.91708 22.3015 3.80154C22.2139 3.686 22.0947 3.59833 21.9584 3.54913L12.2511 0.0518765C12.0868 -0.00752655 11.9069 -0.00752655 11.7426 0.0518765L2.03386 3.54838C1.89726 3.59768 1.77792 3.68559 1.69031 3.80141C1.60271 3.91724 1.55062 4.05601 1.54036 4.20088C1.53436 4.28188 0.989115 12.3961 4.09711 17.3934C5.90709 20.2967 8.56038 22.5781 11.7021 23.9326C11.7951 23.9722 11.8951 23.9926 11.9961 23.9926C12.0972 23.9926 12.1971 23.9722 12.2901 23.9326C15.4319 22.5779 18.0852 20.2962 19.8951 17.3926C23.0031 12.3961 22.4571 4.28188 22.4519 4.20013ZM17.8851 16.1979C16.5265 18.3756 14.6389 20.1742 12.3981 21.4261C12.3816 21.4359 12.3629 21.4396 12.3456 21.4479L12.2796 21.4741C12.1874 21.5079 12.0921 21.5311 11.9961 21.5311C11.9001 21.5311 11.8049 21.5086 11.7126 21.4741C11.6901 21.4659 11.6684 21.4576 11.6474 21.4479C11.6294 21.4396 11.6106 21.4359 11.5941 21.4261C9.35353 20.1745 7.46617 18.3762 6.10787 16.1986C4.11511 12.9961 3.79337 7.88638 3.74611 5.83813C3.73861 5.48338 3.95836 5.16313 4.29211 5.04313L11.7171 2.36863C11.8971 2.30338 12.0951 2.30338 12.2759 2.36863L19.7009 5.04313C20.0339 5.16313 20.2536 5.48338 20.2461 5.83813C20.1989 7.88638 19.8771 12.9961 17.8851 16.1979Z" fill="#DCF0E1"/>
</svg>
