<svg width="24" height="24" viewBox="0 0 24 24" fill="none" xmlns="http://www.w3.org/2000/svg">
<path d="M15.7437 13.7103H20.071L12.5469 21.7061C12.4773 21.7816 12.3928 21.8419 12.2987 21.8831C12.2046 21.9243 12.1031 21.9456 12.0004 21.9456C11.8977 21.9456 11.7961 21.9243 11.702 21.8831C11.6079 21.8419 11.5234 21.7816 11.4538 21.7061L3.92969 13.7103H8.257C8.41463 13.7092 8.56796 13.6588 8.6955 13.5662C8.82304 13.4735 8.91841 13.3433 8.96824 13.1938L9.71691 10.9478L11.2816 16.1735C11.3267 16.32 11.4154 16.4493 11.5357 16.5442C11.6561 16.6392 11.8025 16.6953 11.9554 16.705H12.0004C12.1473 16.7049 12.291 16.6615 12.4135 16.5803C12.5359 16.4991 12.6318 16.3837 12.6891 16.2483L14.3886 12.2804L15.1223 13.3734C15.1901 13.4764 15.2823 13.5611 15.3907 13.6198C15.4992 13.6786 15.6204 13.7097 15.7437 13.7103Z" fill="#DCF0E1"/>
<path d="M21.4533 12.2131H16.1452L14.865 10.2965C14.7895 10.1856 14.686 10.0967 14.565 10.0389C14.444 9.98101 14.3099 9.95623 14.1762 9.96705C14.0424 9.98115 13.9147 10.03 13.8056 10.1089C13.6966 10.1877 13.6101 10.2936 13.5548 10.4163L12.1248 13.7628L10.4703 8.25259C10.4237 8.10127 10.3307 7.96846 10.2043 7.87304C10.078 7.77761 9.92482 7.72443 9.76653 7.72104C9.60793 7.72138 9.45326 7.77038 9.32339 7.86142C9.19352 7.95246 9.09472 8.08116 9.04032 8.23013L7.71518 12.2131H2.54186C1.59098 11.1043 1.04797 9.7037 1.00303 8.24376C0.95809 6.78381 1.41391 5.35243 2.2948 4.18731C2.8038 3.49388 3.47229 2.9332 4.24374 2.55269C5.01519 2.17218 5.86693 1.98301 6.72693 2.0012C7.58664 2.00668 8.43261 2.21744 9.19441 2.61592C9.95621 3.0144 10.6118 3.58908 11.1067 4.29213L11.9976 5.62476L12.8735 4.3071C13.3707 3.60455 14.0268 3.02947 14.7885 2.62878C15.5502 2.22809 16.3959 2.01313 17.2565 2.00145C18.117 1.98978 18.9682 2.1817 19.7405 2.56158C20.5128 2.94145 21.1843 3.49851 21.7003 4.18731C22.5812 5.35243 23.0371 6.78381 22.9921 8.24376C22.9472 9.7037 22.4042 11.1043 21.4533 12.2131Z" fill="#DCF0E1"/>
</svg>
