<svg width="24" height="24" viewBox="0 0 24 24" fill="none" xmlns="http://www.w3.org/2000/svg">
<path fill-rule="evenodd" clip-rule="evenodd" d="M11.1677 3.4521C8.79983 1.245 5.08618 1.28571 2.77083 3.60107C1.62947 4.74248 1 6.26549 1 7.87628C1 11.2091 3.04585 14.6176 5.19938 17.0855C6.82831 18.9521 8.90135 20.7283 11.0773 21.9253C11.67 22.2514 12.324 22.2514 12.9168 21.9253C17.6003 19.3487 23.0554 13.2641 22.994 7.74032C22.9593 6.18094 22.3288 4.70666 21.2232 3.60102C19.4385 1.81634 16.7348 1.33216 14.4541 2.36632C13.6745 2.72036 12.9786 3.2354 12.4123 3.87759C12.3888 3.9063 12.3622 3.93255 12.3333 3.95581C10.1446 5.71612 7.79271 8.28836 7.52175 11.2221C7.3359 13.234 8.238 15.1253 10.0379 16.0919C11.2159 16.7245 12.5869 16.836 13.8524 16.4042C15.422 15.8685 16.3539 14.489 16.3447 12.843C16.3357 11.2285 14.7765 9.50692 13.0882 9.79741C12.406 9.91483 11.7863 10.2834 11.593 10.984C11.3343 11.9212 11.9578 13.0452 13.1479 12.884C13.4415 12.8443 13.7119 13.0508 13.7512 13.3443C13.7907 13.6377 13.5845 13.9077 13.2911 13.9474C10.6801 14.3014 9.54073 11.0507 11.3267 9.45875C11.8897 8.957 12.6967 8.69616 13.4477 8.69193C15.5884 8.67992 17.4052 10.7479 17.4169 12.8383C17.4287 14.952 16.1961 16.7389 14.1976 17.4208C12.6568 17.9466 10.9871 17.8134 9.55008 17.0488C7.36372 15.8856 6.22676 13.5826 6.45377 11.1248C6.73458 8.08465 8.92266 5.43704 11.1658 3.52854C11.1714 3.52391 11.1759 3.51812 11.179 3.51157C11.1822 3.50501 11.1838 3.49785 11.1838 3.4906C11.1841 3.48339 11.1829 3.4762 11.1801 3.46955C11.1773 3.4629 11.1731 3.45694 11.1677 3.4521Z" fill="#DCF0E1"/>
</svg>
