<svg width="36" height="36" viewBox="0 0 36 36" fill="none" xmlns="http://www.w3.org/2000/svg">
<path d="M0 18C0 8.05888 8.05888 0 18 0C27.9411 0 36 8.05888 36 18C36 27.9411 27.9411 36 18 36C8.05888 36 0 27.9411 0 18Z" fill="#FEFEFE"/>
<path d="M15.7931 24C15.6844 24.0001 15.5768 23.978 15.4763 23.9349C15.3759 23.8919 15.2847 23.8286 15.2079 23.7489L10.2424 18.6061C10.1656 18.5265 10.1046 18.432 10.063 18.328C10.0214 18.224 10 18.1126 10 18C10 17.8874 10.0214 17.776 10.063 17.672C10.1046 17.568 10.1656 17.4735 10.2424 17.3939L15.2079 12.2511C15.3631 12.0903 15.5736 12 15.7931 12C16.0126 12 16.2231 12.0903 16.3783 12.2511C16.5335 12.4118 16.6207 12.6298 16.6207 12.8572C16.6207 13.0845 16.5335 13.3025 16.3783 13.4633L11.998 18L16.3783 22.5367C16.4941 22.6566 16.5729 22.8093 16.6048 22.9756C16.6368 23.1419 16.6204 23.3142 16.5577 23.4709C16.4951 23.6275 16.389 23.7614 16.2529 23.8555C16.1168 23.9497 15.9568 24 15.7931 24ZM20.7921 23.7489L25.7576 18.6061C25.8344 18.5265 25.8954 18.432 25.937 18.328C25.9786 18.224 26 18.1126 26 18C26 17.8874 25.9786 17.776 25.937 17.672C25.8954 17.568 25.8344 17.4735 25.7576 17.3939L20.7921 12.2511C20.6369 12.0903 20.4264 12 20.2069 12C19.9874 12 19.7769 12.0903 19.6217 12.2511C19.4665 12.4118 19.3793 12.6298 19.3793 12.8572C19.3793 13.0845 19.4665 13.3025 19.6217 13.4633L24.002 18L19.6217 22.5367C19.4665 22.6975 19.3793 22.9155 19.3793 23.1428C19.3793 23.3702 19.4665 23.5882 19.6217 23.7489C19.7769 23.9097 19.9874 24 20.2069 24C20.4264 24 20.6369 23.9097 20.7921 23.7489Z" fill="#0B3E12"/>
</svg>
